<svg width="800" height="800" viewBox="0 0 800 800" fill="none" xmlns="http://www.w3.org/2000/svg">
    <path
        d="M415.5 308C415.5 314.545 413.401 323.482 410.604 330.792C409.207 334.444 407.645 337.664 406.102 339.96C405.33 341.109 404.576 342.009 403.863 342.616C403.144 343.229 402.52 343.5 402 343.5C401.48 343.5 400.856 343.229 400.137 342.616C399.425 342.009 398.67 341.109 397.898 339.96C396.355 337.664 394.793 334.444 393.396 330.792C390.599 323.482 388.5 314.545 388.5 308C388.5 294.936 396.831 288.5 402 288.5C407.169 288.5 415.5 294.936 415.5 308Z"
        fill="{beak_color}" stroke="{stroke_color}" />
</svg>