<svg width="200" height="200" viewBox="0 0 200 200" fill="none" xmlns="http://www.w3.org/2000/svg">
    <path
        d="M103.5 77C103.5 78.5747 102.99 80.7615 102.301 82.564C101.957 83.4627 101.578 84.239 101.214 84.7809C101.032 85.0529 100.865 85.2474 100.723 85.3686C100.574 85.4955 100.502 85.5 100.5 85.5C100.498 85.5 100.426 85.4955 100.277 85.3686C100.135 85.2474 99.9684 85.0529 99.7857 84.7809C99.4217 84.239 99.0431 83.4627 98.6992 82.564C98.0096 80.7615 97.5 78.5747 97.5 77C97.5 73.8775 99.4734 72.5 100.5 72.5C101.527 72.5 103.5 73.8775 103.5 77Z"
        fill="{beak_color}" stroke="{stroke_color}" />
</svg>