<svg width="800" height="800" viewBox="0 0 800 800" fill="none" xmlns="http://www.w3.org/2000/svg">
    <path
        d="M273.64 135.367L307.405 163.504C307.755 163.796 307.864 164.288 307.668 164.7L273.904 235.981C273.447 236.945 272 236.62 272 235.553V136.135C272 135.287 272.989 134.824 273.64 135.367Z"
        fill="{ear_left_color}" />
    <path
        d="M307.405 163.504L306.765 164.272L306.765 164.272L307.405 163.504ZM273.64 135.367L274.28 134.599L274.28 134.599L273.64 135.367ZM273.904 235.981L273 235.553L273 235.553L273.904 235.981ZM307.668 164.7L306.765 164.272L306.765 164.272L307.668 164.7ZM306.765 164.272L273 136.135L274.28 134.599L308.045 162.736L306.765 164.272ZM273 136.135V235.553H271V136.135H273ZM273 235.553L306.765 164.272L308.572 165.128L274.807 236.409L273 235.553ZM273 235.553L273 235.553L274.807 236.409C273.894 238.337 271 237.686 271 235.553H273ZM273 136.135L273 136.135H271C271 134.439 272.978 133.513 274.28 134.599L273 136.135ZM308.045 162.736C308.746 163.32 308.963 164.304 308.572 165.128L306.765 164.272L306.765 164.272L308.045 162.736Z"
        fill="{stroke_color}" />
    <path
        d="M530.36 135.367L496.595 163.504C496.245 163.796 496.136 164.288 496.332 164.7L530.096 235.981C530.553 236.945 532 236.62 532 235.553V136.135C532 135.287 531.011 134.824 530.36 135.367Z"
        fill="{ear_right_color}" />
    <path
        d="M496.595 163.504L497.235 164.272L497.235 164.272L496.595 163.504ZM530.36 135.367L529.72 134.599L529.72 134.599L530.36 135.367ZM496.332 164.7L497.235 164.272L497.235 164.272L496.332 164.7ZM530.096 235.981L531 235.553L531 235.553L530.096 235.981ZM497.235 164.272L531 136.135L529.72 134.599L495.955 162.736L497.235 164.272ZM531 136.135V235.553H533V136.135H531ZM495.428 165.128L529.193 236.409L531 235.553L497.235 164.272L495.428 165.128ZM531 235.553L531 235.553L529.193 236.409C530.106 238.337 533 237.686 533 235.553H531ZM531 136.135L531 136.135H533C533 134.439 531.022 133.513 529.72 134.599L531 136.135ZM495.955 162.736C495.254 163.32 495.037 164.304 495.428 165.128L497.235 164.272L497.235 164.272L495.955 162.736Z"
        fill="{stroke_color}" />
</svg>