<svg width="200" height="200" viewBox="0 0 200 200" fill="none" xmlns="http://www.w3.org/2000/svg">
    <path
        d="M69.6402 40.3668L76.4047 46.004C76.7551 46.296 76.8636 46.7881 76.6683 47.2003L69.9037 61.481C69.4471 62.4451 68 62.1197 68 61.0529V41.135C68 40.2872 68.9889 39.824 69.6402 40.3668Z"
        fill="{ear_left_color}" />
    <path
        d="M76.4047 46.004L77.0449 45.2357L76.4047 46.004ZM69.6402 40.3668L70.2804 39.5986L70.2804 39.5986L69.6402 40.3668ZM69.9037 61.481L69 61.0529L69 61.0529L69.9037 61.481ZM76.6683 47.2003L75.7646 46.7722L75.7646 46.7722L76.6683 47.2003ZM75.7646 46.7722L69 41.135L70.2804 39.5986L77.0449 45.2357L75.7646 46.7722ZM69 41.135V61.0529H67V41.135H69ZM69 61.0529L75.7646 46.7722L77.572 47.6283L70.8075 61.9091L69 61.0529ZM69 61.0529L69 61.0529L70.8075 61.9091C69.8941 63.8373 67 63.1865 67 61.0529H69ZM69 41.135L69 41.135H67C67 39.4394 68.9777 38.5131 70.2804 39.5986L69 41.135ZM77.0449 45.2357C77.7457 45.8197 77.9625 46.8039 77.572 47.6283L75.7646 46.7722L75.7646 46.7722L77.0449 45.2357Z"
        fill="{stroke_color}" />
    <path
        d="M131.36 40.3668L124.595 46.004C124.245 46.296 124.136 46.7881 124.332 47.2003L131.096 61.481C131.553 62.4451 133 62.1197 133 61.0529V41.135C133 40.2872 132.011 39.824 131.36 40.3668Z"
        fill="{ear_right_color}" />
    <path
        d="M124.595 46.004L123.955 45.2357L124.595 46.004ZM131.36 40.3668L130.72 39.5986L130.72 39.5986L131.36 40.3668ZM124.332 47.2003L123.428 47.6283L123.428 47.6283L124.332 47.2003ZM131.096 61.481L132 61.0529L132 61.0529L131.096 61.481ZM125.235 46.7722L132 41.135L130.72 39.5986L123.955 45.2357L125.235 46.7722ZM132 41.135V61.0529H134V41.135H132ZM123.428 47.6283L130.193 61.9091L132 61.0529L125.235 46.7722L123.428 47.6283ZM132 61.0529L132 61.0529L130.193 61.9091C131.106 63.8373 134 63.1865 134 61.0529H132ZM132 41.135L132 41.135H134C134 39.4394 132.022 38.5131 130.72 39.5986L132 41.135ZM123.955 45.2357C123.254 45.8197 123.037 46.8039 123.428 47.6283L125.235 46.7722L125.235 46.7722L123.955 45.2357Z"
        fill="{stroke_color}" />
</svg>