<svg width="200" height="200" viewBox="0 0 200 200" fill="none" xmlns="http://www.w3.org/2000/svg">
    <circle cx="89" cy="72" r="11.4" fill="{ear_left_color}" stroke="{stroke_color}" stroke-width="1.2" />
    <path
        d="M94.2861 71.5C94.6804 71.5 95.0044 71.1793 94.9576 70.7878C94.8883 70.208 94.7345 69.6401 94.5001 69.1024C94.1704 68.3461 93.6883 67.6659 93.0838 67.1043C92.4794 66.5427 91.7656 66.1119 90.9871 65.8386C90.2086 65.5654 89.3821 65.4556 88.5593 65.5162C87.7364 65.5768 86.9349 65.8065 86.2049 66.1908C85.4748 66.5752 84.8319 67.106 84.3162 67.7501C83.8005 68.3941 83.4233 69.1376 83.2079 69.9341C83.0549 70.5003 82.986 71.0846 83.0024 71.6683C83.0134 72.0625 83.3809 72.3322 83.7709 72.2745V72.2745C84.1609 72.2167 84.4244 71.8527 84.428 71.4584C84.4315 71.0703 84.4844 70.6833 84.5862 70.3067C84.7503 69.6998 85.0378 69.1332 85.4308 68.6424C85.8237 68.1516 86.3137 67.7471 86.87 67.4542C87.4263 67.1613 88.0371 66.9863 88.6641 66.9401C89.2912 66.8939 89.921 66.9776 90.5143 67.1858C91.1075 67.394 91.6514 67.7224 92.1121 68.1503C92.5727 68.5782 92.9401 69.0966 93.1913 69.6729C93.3472 70.0305 93.4563 70.4056 93.5166 70.789C93.5779 71.1785 93.8919 71.5 94.2861 71.5V71.5Z"
        fill="{stroke_color}" />
    <circle cx="112" cy="72" r="11.4" fill="{ear_right_color}" stroke="{stroke_color}" stroke-width="1.2" />
    <path
        d="M117.286 71.5C117.68 71.5 118.004 71.1793 117.958 70.7878C117.888 70.208 117.735 69.6401 117.5 69.1024C117.17 68.3461 116.688 67.6659 116.084 67.1043C115.479 66.5427 114.766 66.1119 113.987 65.8386C113.209 65.5654 112.382 65.4556 111.559 65.5162C110.736 65.5768 109.935 65.8065 109.205 66.1908C108.475 66.5752 107.832 67.106 107.316 67.7501C106.801 68.3941 106.423 69.1376 106.208 69.9341C106.055 70.5003 105.986 71.0846 106.002 71.6683C106.013 72.0625 106.381 72.3322 106.771 72.2745V72.2745C107.161 72.2167 107.424 71.8527 107.428 71.4584C107.431 71.0703 107.484 70.6833 107.586 70.3067C107.75 69.6998 108.038 69.1332 108.431 68.6424C108.824 68.1516 109.314 67.7471 109.87 67.4542C110.426 67.1613 111.037 66.9863 111.664 66.9401C112.291 66.8939 112.921 66.9776 113.514 67.1858C114.108 67.394 114.651 67.7224 115.112 68.1503C115.573 68.5782 115.94 69.0966 116.191 69.6729C116.347 70.0305 116.456 70.4056 116.517 70.789C116.578 71.1785 116.892 71.5 117.286 71.5V71.5Z"
        fill="{stroke_color}" />
</svg>