<svg width="200" height="200" viewBox="0 0 200 200" fill="none" xmlns="http://www.w3.org/2000/svg">
    <path
        d="M104.35 149.5C104.35 152.126 102.009 154.35 99 154.35C95.9909 154.35 93.65 152.126 93.65 149.5C93.65 146.874 95.9909 144.65 99 144.65C102.009 144.65 104.35 146.874 104.35 149.5Z"
        fill="{feathers_color_2}" stroke="{stroke_color}" stroke-width="1.3" />
    <path
        d="M99.35 145.5C99.35 148.126 97.0091 150.35 94 150.35C90.9909 150.35 88.65 148.126 88.65 145.5C88.65 142.874 90.9909 140.65 94 140.65C97.0091 140.65 99.35 142.874 99.35 145.5Z"
        fill="{feathers_color_1}" stroke="{stroke_color}" stroke-width="1.3" />
    <path
        d="M110.35 145.5C110.35 148.126 108.009 150.35 105 150.35C101.991 150.35 99.65 148.126 99.65 145.5C99.65 142.874 101.991 140.65 105 140.65C108.009 140.65 110.35 142.874 110.35 145.5Z"
        fill="{feathers_color_1}" stroke="{stroke_color}" stroke-width="1.3" />
    <path
        d="M104.35 141.5C104.35 144.126 102.009 146.35 99 146.35C95.9909 146.35 93.65 144.126 93.65 141.5C93.65 138.874 95.9909 136.65 99 136.65C102.009 136.65 104.35 138.874 104.35 141.5Z"
        fill="{feathers_color_3}" stroke="{stroke_color}" stroke-width="1.3" />
    <path
        d="M99.35 136.5C99.35 139.126 97.0091 141.35 94 141.35C90.9909 141.35 88.65 139.126 88.65 136.5C88.65 133.874 90.9909 131.65 94 131.65C97.0091 131.65 99.35 133.874 99.35 136.5Z"
        fill="{feathers_color_2}" stroke="{stroke_color}" stroke-width="1.3" />
    <path
        d="M110.35 136.5C110.35 139.126 108.009 141.35 105 141.35C101.991 141.35 99.65 139.126 99.65 136.5C99.65 133.874 101.991 131.65 105 131.65C108.009 131.65 110.35 133.874 110.35 136.5Z"
        fill="{feathers_color_2}" stroke="{stroke_color}" stroke-width="1.3" />
    <path
        d="M104.35 131.5C104.35 134.126 102.009 136.35 99 136.35C95.9909 136.35 93.65 134.126 93.65 131.5C93.65 128.874 95.9909 126.65 99 126.65C102.009 126.65 104.35 128.874 104.35 131.5Z"
        fill="{feathers_color_1}" stroke="{stroke_color}" stroke-width="1.3" />
    <path
        d="M99.35 126.5C99.35 129.126 97.0091 131.35 94 131.35C90.9909 131.35 88.65 129.126 88.65 126.5C88.65 123.874 90.9909 121.65 94 121.65C97.0091 121.65 99.35 123.874 99.35 126.5Z"
        fill="{feathers_color_3}" stroke="{stroke_color}" stroke-width="1.3" />
    <path
        d="M110.35 126.5C110.35 129.126 108.009 131.35 105 131.35C101.991 131.35 99.65 129.126 99.65 126.5C99.65 123.874 101.991 121.65 105 121.65C108.009 121.65 110.35 123.874 110.35 126.5Z"
        fill="{feathers_color_3}" stroke="{stroke_color}" stroke-width="1.3" />
    <path
        d="M104.35 122.5C104.35 125.126 102.009 127.35 99 127.35C95.9909 127.35 93.65 125.126 93.65 122.5C93.65 119.874 95.9909 117.65 99 117.65C102.009 117.65 104.35 119.874 104.35 122.5Z"
        fill="{feathers_color_2}" stroke="{stroke_color}" stroke-width="1.3" />
    <path
        d="M99.35 117.5C99.35 120.126 97.0091 122.35 94 122.35C90.9909 122.35 88.65 120.126 88.65 117.5C88.65 114.874 90.9909 112.65 94 112.65C97.0091 112.65 99.35 114.874 99.35 117.5Z"
        fill="{feathers_color_1}" stroke="{stroke_color}" stroke-width="1.3" />
    <path
        d="M110.35 117.5C110.35 120.126 108.009 122.35 105 122.35C101.991 122.35 99.65 120.126 99.65 117.5C99.65 114.874 101.991 112.65 105 112.65C108.009 112.65 110.35 114.874 110.35 117.5Z"
        fill="{feathers_color_1}" stroke="{stroke_color}" stroke-width="1.3" />
    <path
        d="M94.35 112.5C94.35 115.126 92.0091 117.35 89 117.35C85.9909 117.35 83.65 115.126 83.65 112.5C83.65 109.874 85.9909 107.65 89 107.65C92.0091 107.65 94.35 109.874 94.35 112.5Z"
        fill="{feathers_color_3}" stroke="{stroke_color}" stroke-width="1.3" />
    <path
        d="M105.35 112.5C105.35 115.126 103.009 117.35 100 117.35C96.9909 117.35 94.65 115.126 94.65 112.5C94.65 109.874 96.9909 107.65 100 107.65C103.009 107.65 105.35 109.874 105.35 112.5Z"
        fill="{feathers_color_3}" stroke="{stroke_color}" stroke-width="1.3" />
    <path
        d="M116.35 112.5C116.35 115.126 114.009 117.35 111 117.35C107.991 117.35 105.65 115.126 105.65 112.5C105.65 109.874 107.991 107.65 111 107.65C114.009 107.65 116.35 109.874 116.35 112.5Z"
        fill="{feathers_color_3}" stroke="{stroke_color}" stroke-width="1.3" />
    <path
        d="M89.35 107.5C89.35 110.126 87.0091 112.35 84 112.35C80.9909 112.35 78.65 110.126 78.65 107.5C78.65 104.874 80.9909 102.65 84 102.65C87.0091 102.65 89.35 104.874 89.35 107.5Z"
        fill="{feathers_color_2}" stroke="{stroke_color}" stroke-width="1.3" />
    <path
        d="M100.35 107.5C100.35 110.126 98.0091 112.35 95 112.35C91.9909 112.35 89.65 110.126 89.65 107.5C89.65 104.874 91.9909 102.65 95 102.65C98.0091 102.65 100.35 104.874 100.35 107.5Z"
        fill="{feathers_color_2}" stroke="{stroke_color}" stroke-width="1.3" />
    <path
        d="M111.35 107.5C111.35 110.126 109.009 112.35 106 112.35C102.991 112.35 100.65 110.126 100.65 107.5C100.65 104.874 102.991 102.65 106 102.65C109.009 102.65 111.35 104.874 111.35 107.5Z"
        fill="{feathers_color_2}" stroke="{stroke_color}" stroke-width="1.3" />
    <path
        d="M122.35 107.5C122.35 110.126 120.009 112.35 117 112.35C113.991 112.35 111.65 110.126 111.65 107.5C111.65 104.874 113.991 102.65 117 102.65C120.009 102.65 122.35 104.874 122.35 107.5Z"
        fill="{feathers_color_2}" stroke="{stroke_color}" stroke-width="1.3" />
    <path
        d="M83.35 102.5C83.35 105.126 81.0091 107.35 78 107.35C74.9909 107.35 72.65 105.126 72.65 102.5C72.65 99.8735 74.9909 97.65 78 97.65C81.0091 97.65 83.35 99.8735 83.35 102.5Z"
        fill="{feathers_color_1}" stroke="{stroke_color}" stroke-width="1.3" />
    <path
        d="M94.35 102.5C94.35 105.126 92.0091 107.35 89 107.35C85.9909 107.35 83.65 105.126 83.65 102.5C83.65 99.8735 85.9909 97.65 89 97.65C92.0091 97.65 94.35 99.8735 94.35 102.5Z"
        fill="{feathers_color_1}" stroke="{stroke_color}" stroke-width="1.3" />
    <path
        d="M105.35 102.5C105.35 105.126 103.009 107.35 100 107.35C96.9909 107.35 94.65 105.126 94.65 102.5C94.65 99.8735 96.9909 97.65 100 97.65C103.009 97.65 105.35 99.8735 105.35 102.5Z"
        fill="{feathers_color_1}" stroke="{stroke_color}" stroke-width="1.3" />
    <path
        d="M116.35 102.5C116.35 105.126 114.009 107.35 111 107.35C107.991 107.35 105.65 105.126 105.65 102.5C105.65 99.8735 107.991 97.65 111 97.65C114.009 97.65 116.35 99.8735 116.35 102.5Z"
        fill="{feathers_color_1}" stroke="{stroke_color}" stroke-width="1.3" />
    <path
        d="M127.35 102.5C127.35 105.126 125.009 107.35 122 107.35C118.991 107.35 116.65 105.126 116.65 102.5C116.65 99.8735 118.991 97.65 122 97.65C125.009 97.65 127.35 99.8735 127.35 102.5Z"
        fill="{feathers_color_1}" stroke="{stroke_color}" stroke-width="1.3" />
</svg>