<svg width="800" height="800" viewBox="0 0 800 800" fill="none" xmlns="http://www.w3.org/2000/svg">
    <path
        d="M269.006 476.324V405.051C335.917 408.668 389.612 464.067 389.612 531.863V644.47C318.694 620.232 268.386 554.454 269.006 476.332H269.006V476.324Z"
        fill="{wing_left_color}" stroke="{stroke_color}" stroke-width="2" />
    <path
        d="M300.5 500C300.5 499.724 300.276 499.5 300 499.5C299.724 499.5 299.5 499.724 299.5 500H300.5ZM300.5 560.012V500H299.5V560.012H300.5Z"
        fill="{stroke_color}" />
    <path
        d="M330.5 540C330.5 539.724 330.276 539.5 330 539.5C329.724 539.5 329.5 539.724 329.5 540H330.5ZM330.5 596V540H329.5V596H330.5Z"
        fill="{stroke_color}" />
    <path
        d="M359.5 503.992C359.5 503.716 359.276 503.492 359 503.492C358.724 503.492 358.5 503.716 358.5 503.992H359.5ZM359.5 607.36V503.992H358.5V607.36H359.5Z"
        fill="{stroke_color}" />
    <path
        d="M533.607 476.305L534.98 405.052C468.049 408.68 413 464.088 413 531.863V644.47C483.919 620.232 534.227 554.454 533.607 476.332L533.607 476.318L533.607 476.305Z"
        fill="{wing_right_color}" stroke="{stroke_color}" stroke-width="2" />
    <path
        d="M502.113 500C502.113 499.724 502.336 499.5 502.613 499.5C502.889 499.5 503.113 499.724 503.113 500H502.113ZM502.113 560.012V500H503.113V560.012H502.113Z"
        fill="{stroke_color}" />
    <path
        d="M472.113 540C472.113 539.724 472.336 539.5 472.613 539.5C472.889 539.5 473.113 539.724 473.113 540H472.113ZM472.113 596V540H473.113V596H472.113Z"
        fill="{stroke_color}" />
    <path
        d="M443.113 503.992C443.113 503.716 443.336 503.492 443.613 503.492C443.889 503.492 444.113 503.716 444.113 503.992H443.113ZM443.113 607.36V503.992H444.113V607.36H443.113Z"
        fill="{stroke_color}" />
</svg>