<svg width="200" height="200" viewBox="0 0 200 200" fill="none" xmlns="http://www.w3.org/2000/svg">
    <path
        d="M68.0014 119.081V102.064C83.9682 103.333 96.6531 116.689 96.6531 132.966V160.056C79.7379 153.829 67.852 137.913 68.0014 119.089H68.0014V119.081Z"
        fill="{wing_left_color}" stroke="{stroke_color}" stroke-width="2" />
    <path
        d="M75.5 125C75.5 124.724 75.2761 124.5 75 124.5C74.7239 124.5 74.5 124.724 74.5 125H75.5ZM75.5 140.003V125H74.5V140.003H75.5Z"
        fill="{stroke_color}" />
    <path d="M83 135C83 134.724 82.7761 134.5 82.5 134.5C82.2239 134.5 82 134.724 82 135H83ZM83 149V135H82V149H83Z"
        fill="{stroke_color}" />
    <path
        d="M90.25 125.998C90.25 125.722 90.0261 125.498 89.75 125.498C89.4739 125.498 89.25 125.722 89.25 125.998H90.25ZM90.25 151.84V125.998H89.25V151.84H90.25Z"
        fill="{stroke_color}" />
    <path
        d="M132.652 119.062L132.979 102.066C116.994 103.345 104 116.71 104 132.966V160.056C120.915 153.829 132.801 137.913 132.652 119.089L132.652 119.075L132.652 119.062Z"
        fill="{wing_right_color}" stroke="{stroke_color}" stroke-width="2" />
    <path
        d="M125.153 125C125.153 124.724 125.377 124.5 125.653 124.5C125.929 124.5 126.153 124.724 126.153 125H125.153ZM125.153 140.003V125H126.153V140.003H125.153Z"
        fill="{stroke_color}" />
    <path
        d="M117.653 135C117.653 134.724 117.877 134.5 118.153 134.5C118.429 134.5 118.653 134.724 118.653 135H117.653ZM117.653 149V135H118.653V149H117.653Z"
        fill="{stroke_color}" />
    <path
        d="M110.403 125.998C110.403 125.722 110.627 125.498 110.903 125.498C111.179 125.498 111.403 125.722 111.403 125.998H110.403ZM110.403 151.84V125.998H111.403V151.84H110.403Z"
        fill="{stroke_color}" />
</svg>