<svg width="70" height="140" viewBox="0 0 7 14" fill="none" xmlns="http://www.w3.org/2000/svg">
    <path
        d="M6.5 5C6.5 6.5747 5.99044 8.76151 5.30078 10.564C4.95691 11.4627 4.57831 12.239 4.2143 12.7809C4.03161 13.0529 3.86482 13.2474 3.72254 13.3686C3.57358 13.4955 3.50194 13.5 3.5 13.5C3.49806 13.5 3.42642 13.4955 3.27746 13.3686C3.13518 13.2474 2.96839 13.0529 2.7857 12.7809C2.42169 12.239 2.04309 11.4627 1.69922 10.564C1.00956 8.76151 0.5 6.5747 0.5 5C0.5 1.87747 2.47335 0.5 3.5 0.5C4.52665 0.5 6.5 1.87747 6.5 5Z"
        fill="{beak_color}" stroke="{stroke_color}" />
</svg>